<svg xmlns="http://www.w3.org/2000/svg" viewBox="0 0 654.93 738.96"><defs><style>.cls-1{fill:#fff;stroke:#000;stroke-linejoin:round;stroke-width:37.5px;fill-rule:evenodd;}</style></defs><g id="Layer_2" data-name="Layer 2"><g id="svg1"><g id="g1546"><path id="path1544" class="cls-1" d="M227.06,720.06c-7.8-86.48-36.34-141.4-62.13-176.18-50.15-67.64-84.82-106.11-137.5-175-9.59-12.55-14.78-49.15,3.75-68.75s47.53-19,65-8.75c48.78,28.53,65.85,50.93,100,97.5,11.68,15.93,34.94,62.73,35,98.75V78.88c0-36.53,34.4-62.2,70-60S366,52,366.18,80.13l2.5,303.75C367.58,312.15,375,268.31,408,268.21s46.79,48.07,48.23,118.17c-1.44-73,9.46-93.69,44-94.27s44,46.86,44.79,139.27c.06-72.83,17.52-104.22,33.75-105S635.55,358.56,635.81,433l.37,104.64c.11,32-46.57,56.55-46.84,88.6l-.81,94Z"/></g></g></g></svg>